# xmcd
#
# Track frame offsets: 
#        150
#        26438
#        43668
#        58328
#        83474
#        99223
#        112738
#        126508
#        141798
#        153603
#        171198
#        186444
#
# Disc length: 2820 seconds
#
# Revision: 0
# Processed by: cddbd v1.5.2PL0 Copyright (c) Steve Scherf et al.
# Submitted via: ExactAudioCopy v1.0b3
#
DISCID=9c0b020c
DTITLE=Various Artist - Club Coalition Vol. 2 - CD 1
DYEAR=1900
DGENRE=
TTITLE0=DJ Andy Garcia - Disco Jojo (Jojo Mix)
TTITLE1=Rick Maniac and Dr. Loop - Gimme Hope Jo'anna (Radio Edit)
TTITLE2=Spoot - Take Control 2004 (Radio Mix)
TTITLE3=T90 - Can't Stop To Follow (Extended)
TTITLE4=The Outhere Brothers Vs. DJ Sputnik - Boom Boom Boom (Radio Ed
TTITLE4=it)
TTITLE5=Vanilla Ninja - Club Kung Fu (Massimo Radio Edit)
TTITLE6=In-Grid - Shock (Original Radio Edit)
TTITLE7=Whigfield - Was A Time (Original Radio Edit)
TTITLE8=Tom Jones Vs. Funkstar Deluxe Feat. DJ The Wave - She's A Lady
TTITLE8=(Radio Version)
TTITLE9=Lichtenfels - B-Boys Fly Girls (Radio Edit)
TTITLE10=Benny Benassi Pres. The Biz - Love Is Gonna Save Us (Radio Ed
TTITLE10=it)
TTITLE11=Seduction - Feel Brand New (Mr. Piraz Club)
EXTD=
EXTT0=
EXTT1=
EXTT2=
EXTT3=
EXTT4=
EXTT5=
EXTT6=
EXTT7=
EXTT8=
EXTT9=
EXTT10=
EXTT11=
PLAYORDER=
